<?xml version="1.0" encoding="iso-8859-1"?>
<!-- Generator: Adobe Illustrator 19.0.0, SVG Export Plug-In . SVG Version: 6.00 Build 0)  -->
<svg version="1.1" id="Capa_1" xmlns="http://www.w3.org/2000/svg" xmlns:xlink="http://www.w3.org/1999/xlink" x="0px" y="0px"
	 viewBox="0 0 490 490" style="enable-background:new 0 0 490 490;" xml:space="preserve" fill="#fff">
<g>
	<g>
		<g>
			<path d="M447.6,0v77.8c0,0-139.6,0-140,0c-4.3-17.5-20.2-30.3-38.9-30.3c-22.2,0-40.1,17.9-40.1,40.1s17.9,40.1,40.1,40.1
				c18.7,0,34.6-12.8,38.9-30.3c0.4,0,140,0,140,0v137.3c0,0-33.8,0-34.2,0c-4.3-17.5-20.2-30.3-38.9-30.3
				c-22.2,0-40.1,17.9-40.1,40.1s17.9,40.1,40.1,40.1c18.7,0,34.6-12.8,38.9-30.3c0.4,0,34.2,0,34.2,0v137.3c0,0-36.9,0-37.3,0
				c-4.3-17.5-20.2-30.3-38.9-30.3s-34.6,12.8-38.9,30.3c-0.4,0-60.3,0-60.7,0c-4.3-17.5-20.2-30.3-38.9-30.3s-34.6,12.8-38.9,30.3
				c-0.4,0-46.7,0-47.1,0c-4.3-17.5-20.2-30.3-38.9-30.3s-34.6,12.8-38.9,30.3c-0.4,0-26.8,0-26.8,0l0,0V255.1l0,0
				c0,0,26.4,0,26.8,0c4.3,17.5,20.2,30.3,38.9,30.3s34.6-12.8,38.9-30.3c0.4,0,107.7,0,108.1,0c4.3,17.5,20.2,30.3,38.9,30.3
				c22.2,0,40.1-17.9,40.1-40.1s-17.9-40.1-40.1-40.1c-18.7,0-34.6,12.8-38.9,30.3c-0.4,0-107.7,0-108.1,0
				c-4.3-17.5-20.2-30.3-38.9-30.3S73.4,218,69.1,235.5c-0.4,0-26.8,0-26.8,0l0,0V97.6l0,0c0,0,26.4,0,26.8,0
				c4.3,17.5,20.2,30.3,38.9,30.3c22.2,0,40.1-17.9,40.1-40.1S130.2,47.7,108,47.7c-18.7,0-34.6,12.8-38.9,30.3
				c-0.4,0-26.8,0-26.8,0l0,0V0H0v490h42.4v-77.8l0,0c0,0,26.4,0,26.8,0c4.3,17.5,20.2,30.3,38.9,30.3s34.6-12.8,38.9-30.3
				c0.4,0,46.3,0,46.7,0c4.3,17.5,20.2,30.3,38.9,30.3s34.6-12.8,38.9-30.3c0.4,0,60.3,0,60.7,0c4.3,17.5,20.2,30.3,38.9,30.3
				s34.6-12.8,38.9-30.3c0.4,0,37.3,0,37.3,0V490H490V0H447.6z"/>
			<circle cx="188.2" cy="87.9" r="40.1"/>
		</g>
	</g>
</g>
<g>
</g>
<g>
</g>
<g>
</g>
<g>
</g>
<g>
</g>
<g>
</g>
<g>
</g>
<g>
</g>
<g>
</g>
<g>
</g>
<g>
</g>
<g>
</g>
<g>
</g>
<g>
</g>
<g>
</g>
</svg>
