<?xml version="1.0" encoding="iso-8859-1"?>
<!-- Generator: Adobe Illustrator 19.0.0, SVG Export Plug-In . SVG Version: 6.00 Build 0)  -->
<svg version="1.1" id="Layer_1" xmlns="http://www.w3.org/2000/svg" xmlns:xlink="http://www.w3.org/1999/xlink" x="0px" y="0px"
	 viewBox="0 0 512 512" style="enable-background:new 0 0 512 512;" xml:space="preserve" fill="#fff">
<g>
	<g>
		<path d="M333.706,211.363C359.567,189.335,376,156.553,376,120C376,53.832,322.168,0,256,0S136,53.832,136,120
			c0,36.553,16.433,69.335,42.294,91.363C123.259,219.905,81,267.609,81,325v187h350V325
			C431,267.609,388.741,219.905,333.706,211.363z M166,120c0-49.626,40.374-90,90-90c49.626,0,90,40.374,90,90s-40.374,90-90,90
			C206.374,210,166,169.626,166,120z M230,272v-32h52v32H230z M267,302v116.404l-11,12.692l-11-12.692V302H267z M401,482H111V325
			c0-46.869,38.131-85,85-85h4v62h15v127.596l41,47.308l41-47.308V302h15v-62h4c46.869,0,85,38.131,85,85V482z"/>
	</g>
</g>
<g>
</g>
<g>
</g>
<g>
</g>
<g>
</g>
<g>
</g>
<g>
</g>
<g>
</g>
<g>
</g>
<g>
</g>
<g>
</g>
<g>
</g>
<g>
</g>
<g>
</g>
<g>
</g>
<g>
</g>
</svg>
